<svg xmlns="http://www.w3.org/2000/svg" viewBox="0 0 1202.4 282.39"><defs><style>.cls-1{fill:#034a49;}.cls-2{fill:#024b49;}.cls-3{fill:#064e4c;}.cls-4{fill:#024b4a;}.cls-5{fill:#034b4a;}</style></defs><title>Recurso 3</title><g id="Capa_2" data-name="Capa 2"><g id="Capa_1-2" data-name="Capa 1"><path class="cls-1" d="M280.82,276.4c-3.83,0-7.67-.14-11.49,0s-5.75-1.6-7-5q-24.64-66.81-49.42-133.57-15.63-42.06-31.55-84c-4.51-11.83-11.54-21.49-25-24.06-13.9-2.66-26.93,3.37-33.69,15.84-6.91,12.75-10.87,26.75-16.1,40.2Q76.08,164,46,242.4c-3.59,9.31-7.12,18.64-10.38,28.06-1.47,4.28-3.92,6.11-8.46,6-7.32-.21-14.65,0-22,0-5.21,0-6.1-1.21-4.36-5.87C22.16,213.41,44.87,156.8,67,100c7.16-18.41,14.12-36.9,21.32-55.3,9.5-24.28,26.32-40,52.77-43.93a64.68,64.68,0,0,1,70.38,41.46c27.76,74.35,55.24,148.8,83.05,223.13,4.83,12.91,3.32,11.1-8.18,11.1h-5.49Z"/><path class="cls-2" d="M334.29,144.14q0-28.69,0-57.4c0-6.94,1.52-8.4,8.56-8.45,5,0,10,0,15,.08,6.14.09,7.51,1.5,7.51,7.81q0,51.41,0,102.82a92,92,0,0,0,2.71,23.72c6.26,23.77,25.28,40,49.79,42.6,15.58,1.64,30.75.42,44.48-7.68,20.71-12.22,29.52-31.43,29.75-54.71.34-35.1.08-70.21.08-105.32,0-8.06,1.21-9.29,9.2-9.3,4.49,0,9,0,13.49,0,7,.08,8.14,1.21,8.14,8.12,0,35.44.06,70.88,0,106.32a96.91,96.91,0,0,1-5.26,31.33c-9.85,28.8-30.15,46.66-59.19,54.06-26.87,6.85-53.61,5.78-78.79-7.11-28.83-14.75-43-39.5-45.07-71-1.2-18.56-.22-37.25-.22-55.89Z"/><path class="cls-3" d="M586.16,200.05c0-22.11-.11-44.22.05-66.33.09-12.85,2.54-25.11,10.76-35.57,10.84-13.81,25.57-19.88,42.61-20.31,19.13-.48,38.28-.18,57.42-.15,5.4,0,7,1.75,7.18,7.23.09,3.16.12,6.32.11,9.48,0,6.65-1.6,8.37-8.18,8.41-13.32.1-26.63,0-40,.1a95,95,0,0,0-13.91.94c-16,2.57-25,13.62-25,30.94-.14,32.92,0,65.84-.05,98.76q0,18-.1,35.91c0,5.3-1.57,6.88-6.76,6.94-5.66.06-11.32,0-17,0-5.84,0-7-1.2-7-7q0-34.66,0-69.33Z"/><path class="cls-4" d="M868.63,78.08c-31.9-7.21-61.82-2.41-88.48,16.52-29.62,21-43,50.92-42.5,86.83.54,35.69,14.83,64.9,45.76,83.69,36.3,22.06,74.52,22.3,112.68,4.65,15.41-7.13,27.12-19.1,35.5-34,3.59-6.41,2.55-9.57-4.09-12.62-3.33-1.53-6.64-3.11-10.08-4.34-6.35-2.27-10.45-.7-13.82,5.22a63.15,63.15,0,0,1-9.67,13.26c-14.75,15-33.4,19.06-53.51,18.67-37.57-.73-66.06-25.75-71.12-62.14-.55-4,.06-5.46,4.59-5.43,25.81.22,51.63.11,77.44.11v-.3c26,0,52,0,77.94,0,8.19,0,12.63-4.38,13.08-12.45C945,129,914.29,88.4,868.63,78.08Zm37.81,85.36c-22.29-.23-44.59-.1-66.88-.1v0c-21.8,0-43.6-.16-65.39.12-4.74.06-4.95-1.55-4.16-5.36a70.49,70.49,0,0,1,66.62-56.55c17.73-.75,34.56,2.28,49.07,13.16s23.16,25.36,25.34,43.52C911.48,161.92,910.71,163.49,906.44,163.44Z"/><path class="cls-5" d="M1172.59,106.5c-27.43-27-61.2-36.24-98.76-29.59-77.71,13.75-108.45,102.38-66.46,161.93,21.17,30,51.59,42.79,87.71,43.07,26.44-.49,50.8-7.19,71.43-24.22,22.08-18.22,33.61-42.08,35.58-70.47C1204.26,156,1194.9,128.49,1172.59,106.5Zm-1.21,80.08c-3.62,43.83-36.4,71.8-81.69,69.08-42.35-2.53-70.23-34-69.86-76.92.06-22,6.58-41.71,22.77-57.16,21.05-20.08,46.5-24.26,73.76-17.23C1153.47,113.93,1174.71,146.29,1171.38,186.58Z"/></g></g></svg>
