<svg xmlns="http://www.w3.org/2000/svg" viewBox="0 0 1024 1024"><defs><style>.cls-1{fill:#004a4b;}.cls-2{fill:#ceaf83;}.cls-3{fill:#fdfdfd;}</style></defs><title>Recurso 4</title><g id="Capa_2" data-name="Capa 2"><g id="Capa_1-2" data-name="Capa 1"><rect class="cls-1" width="1024" height="1024" rx="188.49"/><path class="cls-2" d="M399.6,695.94c36.73-1.56,69.37,30.88,69.81,68.06.47,39.57-29.72,70.62-69.31,71.14-38.34.5-70.43-30.46-70.36-68.59C329.8,727.17,361.23,694.82,399.6,695.94Z"/><path class="cls-3" d="M927.21,675.25c-14-38.57-30.09-76.39-45.26-114.54q-38.75-97.4-77.5-194.79C787.1,322.37,769.39,279,752.38,235.29c-23-59.21-65.47-97.48-125.41-116.58-40.33-12.85-81.8-14.21-123.37-8-54,8.11-96.22,35.32-123.51,82.88-28.45,49.56-33.33,102.71-18.9,157.75,6.6,25.2,18.25,48.09,32.33,69.89,7.55,11.68,14.57,23.69,22.28,36.3-2.53,0-4.14,0-5.75,0-20.68-.26-41.26.9-61.58,5.06C285,475.63,239.32,512.19,210,569.26c-14.57,28.4-27.54,57.64-40.87,86.66Q133.34,733.88,98,812c-3.42,7.52-6.74,15.09-10.18,22.78a14.43,14.43,0,0,0,2,.36c36.29,0,72.59,0,108.88.09,2.87,0,3.6-1.55,4.51-3.61q27-60.64,54.14-121.25Q292.82,631,328.46,551.57c7.87-17.48,16.63-34.56,30.47-48.24,16.57-16.35,36.31-24.82,60-22.82,7.55.64,12.84,3.61,16.93,10.77,12.72,22.23,26.42,43.89,39.61,65.84q49.08,81.66,98.07,163.35c13.3,22.09,25.69,44.74,40,66.17,22.9,34.23,54.32,51.93,96.37,50.66,32.93-1,65.92-.29,98.89-.17,13.18,0,26.27-.63,39.23-3.09,27.8-5.26,51.45-17.77,67.16-41.84C939.14,755.5,941.91,715.72,927.21,675.25ZM826.9,769.55c-7.27,31.19-39.91,45.07-67.62,29-12.16-7.07-20.95-17.52-28-29.28q-43.07-71.6-85.64-143.5Q569.7,498.18,493.78,370.63c-11.85-19.85-24.14-39.38-31.94-61.35a188.55,188.55,0,0,1-11-60.41c.41-22.14,4-45.34,17-66.08,14.65-23.4,35.68-37,63.42-38.69,20.27-1.24,37.21,7.19,51.75,20.84,15.58,14.62,25.86,32.86,35,51.81,18.44,38.06,33.61,77.54,50,116.5,27.4,65.3,53.5,131.12,79.81,196.85q38.2,95.42,74.71,191.47C828.47,737.09,830.71,753.15,826.9,769.55Z"/></g></g></svg>
