<svg xmlns="http://www.w3.org/2000/svg" viewBox="0 0 1183.03 1183.03"><defs><style>.cls-1{fill:#004a4b;}.cls-2{fill:#ceaf83;}.cls-3{fill:#fdfdfd;}</style></defs><title>isologo</title><g id="Capa_2" data-name="Capa 2"><g id="Capa_1-2" data-name="Capa 1"><rect class="cls-1" width="1183.03" height="1183.03" rx="188.49"/><path class="cls-2" d="M479.12,786.3c36.73-1.57,69.37,30.87,69.81,68.05.47,39.58-29.73,70.63-69.31,71.15-38.34.5-70.43-30.47-70.37-68.6C409.32,817.52,440.75,785.18,479.12,786.3Z"/><path class="cls-3" d="M1006.72,765.61c-14-38.57-30.08-76.4-45.26-114.55Q922.71,553.67,884,456.27c-17.34-43.55-35.06-86.95-52.06-130.63-23-59.2-65.48-97.48-125.42-116.58-40.32-12.85-81.8-14.21-123.36-8-54,8.12-96.22,35.33-123.52,82.88-28.45,49.57-33.32,102.71-18.9,157.75,6.6,25.2,18.26,48.1,32.34,69.89,7.54,11.68,14.56,23.7,22.27,36.3-2.53,0-4.13,0-5.74,0-20.69-.26-41.27.89-61.58,5.05-63.49,13-109.15,49.58-138.43,106.65C275,688,262,717.25,248.68,746.28q-35.82,78-71.21,156.1c-3.43,7.52-6.75,15.09-10.18,22.78a14.18,14.18,0,0,0,2,.36c36.29,0,72.58,0,108.88.1,2.86,0,3.59-1.56,4.51-3.62q27-60.64,54.13-121.25Q372.35,721.31,408,641.92c7.88-17.48,16.63-34.56,30.48-48.23,16.56-16.36,36.31-24.83,60-22.83,7.54.64,12.83,3.61,16.93,10.77,12.71,22.23,26.41,43.89,39.61,65.84Q604,729.13,653,810.83c13.3,22.08,25.7,44.73,40,66.17,22.9,34.22,54.33,51.92,96.37,50.65,32.94-1,65.93-.28,98.89-.16,13.18,0,26.27-.64,39.24-3.1,27.8-5.26,51.44-17.76,67.15-41.84C1018.65,845.85,1021.43,806.07,1006.72,765.61Zm-100.31,94.3c-7.26,31.19-39.9,45.06-67.61,28.94-12.16-7.07-21-17.52-28-29.27Q767.71,788,725.14,716.07,649.21,588.52,573.3,461c-11.85-19.85-24.15-39.38-31.95-61.36a188.77,188.77,0,0,1-11-60.41c.41-22.14,4-45.33,17-66.08,14.66-23.4,35.69-37,63.43-38.69,20.27-1.23,37.2,7.19,51.75,20.84,15.58,14.62,25.85,32.86,35,51.81,18.43,38.07,33.61,77.54,49.95,116.51,27.4,65.29,53.5,131.11,79.82,196.85q38.19,95.4,74.71,191.46C908,827.44,910.23,843.51,906.41,859.91Z"/></g></g></svg>
