<svg xmlns="http://www.w3.org/2000/svg" viewBox="0 0 1183 1183"><defs><style>.cls-1{fill:#fcfcfc;}.cls-2{fill:#ceaf83;}.cls-3{fill:#014a4b;}</style></defs><title>isologo neg</title><g id="Capa_2" data-name="Capa 2"><g id="Capa_1-2" data-name="Capa 1"><rect class="cls-1" width="1183" height="1183" rx="188.49"/><path class="cls-2" d="M492.92,784.39c39-1.66,73.65,32.78,74.11,72.24.5,42-31.55,75-73.58,75.53-40.7.53-74.76-32.34-74.69-72.82C418.83,817.54,452.19,783.2,492.92,784.39Z"/><path class="cls-3" d="M1053,762.43c-14.88-40.95-31.94-81.1-48-121.6q-41.13-103.4-82.27-206.78c-18.42-46.22-37.22-92.3-55.27-138.67C843,232.53,797.91,191.9,734.28,171.63c-42.8-13.64-86.83-15.09-130.95-8.46-57.34,8.61-102.15,37.5-131.12,88-30.2,52.62-35.38,109-20.07,167.46,7,26.76,19.38,51.06,34.33,74.2,8,12.4,15.46,25.15,23.65,38.53-2.69,0-4.4,0-6.1,0-22-.28-43.81.94-65.37,5.37-67.39,13.82-115.87,52.62-146.95,113.21-15.47,30.15-29.24,61.19-43.4,92q-38,82.76-75.59,165.71c-3.64,8-7.16,16-10.81,24.19a15.65,15.65,0,0,0,2.12.38c38.53,0,77.06,0,115.58.1,3,0,3.82-1.66,4.79-3.84q28.69-64.38,57.47-128.72,37.72-84.32,75.54-168.6c8.36-18.56,17.65-36.69,32.35-51.2,17.59-17.36,38.55-26.36,63.65-24.23,8,.68,13.63,3.83,18,11.43,13.49,23.6,28,46.59,42,69.89q52.1,86.68,104.1,173.41c14.12,23.44,27.28,47.49,42.51,70.24,24.3,36.33,57.66,55.13,102.3,53.78,35-1.06,70-.3,105-.18,14,.05,27.88-.67,41.65-3.28,29.51-5.59,54.61-18.86,71.28-44.42C1065.67,847.61,1068.62,805.38,1053,762.43ZM946.52,862.53c-7.71,33.11-42.36,47.84-71.78,30.73-12.91-7.51-22.24-18.6-29.75-31.08q-45.72-76-90.9-152.34Q673.5,574.45,592.9,439.06C580.32,418,567.27,397.26,559,373.93a200.35,200.35,0,0,1-11.64-64.13c.44-23.5,4.23-48.13,18-70.15,15.56-24.84,37.88-39.29,67.33-41.07,21.52-1.31,39.49,7.63,54.93,22.12,16.54,15.52,27.45,34.88,37.19,55,19.57,40.41,35.68,82.31,53,123.68,29.08,69.31,56.79,139.18,84.73,209q40.54,101.28,79.31,203.25C948.19,828.07,950.57,845.12,946.52,862.53Z"/></g></g></svg>
